<?xml version="1.0" encoding="UTF-8"?>
<svg xmlns="http://www.w3.org/2000/svg" width="512" height="512" viewBox="0 84 1208 1208" role="img" aria-label="Zobrist Key">
  <rect x="0" y="84" width="1208" height="1208" rx="128" fill="#010102"/>
  <g transform="translate(1208 0) scale(-1 1)">
    <path d="M0 0 C-2.81 4.567 -6.134 8.413 -9.723 12.383 C-16.745 20.453 -22.941 29.197 -29 38 C-29.585 38.81 -30.17 39.619 -30.773 40.453 C-34.326 45.386 -37.436 50.38 -40.27 55.773 C-41.594 58.243 -42.978 60.68 -44.387 63.102 C-49.475 71.909 -53.566 80.432 -56.648 90.133 C-58.104 94.297 -59.956 98.096 -62 102 C-65.99 103.425 -69.805 104.401 -74 105 C-73.67 105.99 -73.34 106.98 -73 108 C-71.831 108.398 -70.662 108.797 -69.457 109.207 C-67.924 109.737 -66.392 110.267 -64.812 110.812 C-63.293 111.335 -61.773 111.857 -60.207 112.395 C-56 114 -56 114 -51 117 C-49.134 117.955 -47.258 118.891 -45.375 119.812 C-35.711 124.621 -26.783 129.71 -18 136 C-16.35 136.99 -14.7 137.98 -13 139 C-5.552 144.061 1.335 149.709 8.152 155.582 C14.061 160.599 17.619 161.594 25.312 162.5 C35.715 163.73 42.432 165.572 50 173 C57.411 182.769 58.324 193.989 58.875 205.812 C60.024 224.588 62.398 243.505 74.188 258.875 C76.512 261.925 78.271 264.542 80 268 C81.32 268.66 82.64 269.32 84 270 C85.68 271.44 87.324 272.923 88.938 274.438 C92.259 277.553 95.017 279.61 99 282 C99 282.66 99 283.32 99 284 C100.65 284.66 102.3 285.32 104 286 C105.681 287.115 107.325 288.288 108.938 289.5 C113.274 292.726 117.647 295.883 122.062 299 C130.714 305.18 138.828 311.728 146.676 318.898 C148.701 320.729 150.783 322.496 152.875 324.25 C155.655 326.697 157.754 329.08 160 332 C160.771 332.755 161.542 333.511 162.336 334.289 C176.561 348.764 183.308 363.679 183.152 383.797 C182.724 395.624 177.706 412.294 169 421 C166.792 421.082 164.584 421.139 162.375 421.188 C161.145 421.222 159.915 421.257 158.648 421.293 C154.652 420.972 152.493 419.895 149 418 C141.02 415.375 133.465 413.406 125 414 C124.67 414.33 124.34 414.66 124 415 C124.25 420.747 126.262 424.495 129.305 429.309 C133.068 435.284 136.603 441.014 138 448 C133.348 452.294 128.873 454.666 123 457 C122.091 457.375 121.182 457.75 120.246 458.137 C110.644 461.781 101.493 462.997 91.938 458.75 C90.638 457.842 89.339 456.935 88 456 C87.113 455.381 86.226 454.763 85.312 454.125 C82.253 451.313 79.675 448.177 77 445 C75.343 443.324 73.675 441.659 72 440 C69.742 437.698 67.486 435.394 65.23 433.09 C62.55 430.372 59.869 427.655 57.188 424.938 C56.517 424.25 56.517 424.25 53.123 420.771 C52.47 420.112 52.47 420.112 49.168 416.777 C47.985 415.573 46.802 414.369 45.583 413.129 C40.325 408.538 34.762 405.902 28 404.312 C27.051 404.082 26.102 403.851 25.125 403.613 C18.056 402.226 11.241 401.898 4.043 401.973 C2.124 401.985 0.205 401.997 -1.771 402.01 C-5.756 402.042 -9.74 402.084 -13.725 402.127 C-41.583 402.285 -69.792 399.639 -92 381 C-93.279 379.948 -94.558 378.896 -95.875 377.812 C-105.256 369.142 -112.393 359.932 -119 349 C-119.66 349 -120.32 349 -121 349 C-121.392 365.361 -119.658 380.308 -115 396 C-114.834 396.579 -114.834 396.579 -113.992 399.512 C-112.099 405.931 -109.821 411.918 -107 418 C-106.381 419.629 -105.763 421.259 -105.125 422.938 C-102.864 428.325 -100.049 433.022 -97 438 C-96.087 439.804 -95.19 441.616 -94.312 443.438 C-92 448 -92 448 -89 451 C-87.33 453.998 -85.663 456.998 -84 460 C-82.686 461.682 -81.349 463.346 -80 465 C-78.163 467.476 -76.33 469.956 -74.5 472.438 C-69.447 479.199 -64.149 485.658 -58.594 492.012 C-57.012 493.834 -55.461 495.685 -53.969 497.582 C-51.799 500.247 -49.446 502.586 -47 505 C-44.471 507.659 -41.951 510.327 -39.438 513 C-38.734 513.747 -38.031 514.495 -37.307 515.265 C-32.99 519.861 -28.703 524.482 -24.438 529.125 C-20.389 533.527 -16.277 537.821 -12 542 C-12 542.66 -12 543.32 -12 544 C-11.34 544 -10.68 544 -10 544 C-9.031 545.134 -8.061 546.269 -7.062 547.438 C-4.317 550.582 -1.472 553.569 1.5 556.5 C5.546 560.498 9.28 564.693 13 569 C14.622 570.774 16.247 572.544 17.875 574.312 C22.797 579.712 27.429 585.303 32 591 C33.196 592.464 34.392 593.929 35.625 595.438 C45.979 608.468 55.755 621.519 64 636 C65.011 637.629 66.021 639.259 67.062 640.938 C72.859 650.927 77.882 661.207 82 672 C82.784 673.671 83.567 675.341 84.375 677.062 C87.938 685.479 89.646 694.487 91.668 703.367 C93 709 93 709 94.016 711.741 C95.323 716.07 95.661 720.271 96.07 724.773 C96.244 726.649 96.418 728.525 96.598 730.457 C96.772 732.41 96.946 734.363 97.125 736.375 C97.308 738.371 97.492 740.367 97.676 742.363 C98.124 747.242 98.565 752.121 99 757 C100.025 757.321 101.05 757.642 102.105 757.973 C103.453 758.406 104.8 758.839 106.188 759.285 C107.522 759.709 108.856 760.134 110.23 760.571 C119.307 764.012 124.73 770.873 128.73 779.559 C132.143 791.498 132.257 805.837 126.938 817.188 C123.962 822.088 120.756 825.714 116 829 C114.928 829.763 113.855 830.526 112.75 831.312 C108.212 834.097 104.844 834.127 99.591 834.131 C98.015 834.135 96.439 834.139 94.815 834.143 C93.07 834.142 91.325 834.141 89.527 834.14 C87.683 834.143 85.84 834.146 83.941 834.149 C78.807 834.157 73.674 834.159 68.541 834.16 C63.011 834.162 57.481 834.169 51.952 834.176 C39.853 834.19 27.753 834.196 15.654 834.2 C8.103 834.203 0.553 834.207 -6.998 834.212 C-27.894 834.224 -48.789 834.234 -69.684 834.238 C-71.022 834.238 -72.36 834.238 -73.739 834.238 C-75.08 834.238 -76.421 834.239 -77.803 834.239 C-80.521 834.239 -83.239 834.24 -85.957 834.24 C-87.305 834.24 -88.653 834.241 -90.043 834.241 C-111.895 834.245 -133.746 834.262 -155.598 834.286 C-178.019 834.309 -200.44 834.322 -222.86 834.323 C-235.455 834.324 -248.049 834.33 -260.643 834.348 C-271.366 834.363 -282.09 834.368 -292.813 834.36 C-298.286 834.356 -303.759 834.357 -309.232 834.371 C-315.161 834.386 -321.09 834.378 -327.019 834.367 C-328.755 834.376 -330.491 834.384 -332.28 834.392 C-333.073 834.389 -333.073 834.389 -337.088 834.372 C-338.457 834.373 -339.826 834.373 -341.236 834.374 C-349.415 833.562 -354.872 829.24 -361 824 C-369.107 813.973 -369.899 801.389 -369 789 C-367.408 779.821 -364.89 773.539 -358 767 C-357.464 766.453 -357.464 766.453 -354.75 763.688 C-346.593 757.842 -337.491 757.57 -327.812 757.812 C-326.765 757.826 -325.718 757.84 -324.639 757.854 C-322.092 757.888 -319.546 757.942 -317 758 C-318.196 753.308 -319.454 750.243 -322 746 C-323.21 743.469 -324.394 740.926 -325.562 738.375 C-329.317 730.323 -333.384 722.476 -337.555 714.633 C-340.479 709.093 -343.288 703.504 -346.066 697.891 C-347.37 695.268 -348.691 692.653 -350.027 690.047 C-354.878 680.551 -359.04 670.896 -363 661 C-363.871 658.894 -364.745 656.79 -365.625 654.688 C-366.017 653.746 -366.409 652.805 -366.812 651.836 C-367.64 649.86 -368.474 647.886 -369.312 645.914 C-371.812 640.008 -374.05 634.116 -376 628 C-376.495 626.515 -376.99 625.03 -377.5 623.5 C-382 610 -382 610 -383.23 606.238 C-383.67 604.902 -384.11 603.565 -384.562 602.188 C-384.976 600.923 -385.39 599.658 -385.816 598.355 C-387 595 -387 595 -389 591 C-390.095 586.181 -391.094 581.354 -392.057 576.508 C-393.693 568.598 -393.693 568.598 -395.504 565.074 C-397.942 560.064 -398.551 554.647 -399.5 549.188 C-400.847 541.516 -402.529 534.401 -405 527 C-405.759 523.079 -406.451 519.192 -407.062 515.25 C-407.233 514.19 -407.404 513.131 -407.58 512.039 C-408.459 506.551 -409.299 501.058 -410.125 495.562 C-410.631 492.348 -411.204 489.139 -411.953 485.973 C-413.218 479.963 -413.957 473.976 -414.625 467.875 C-414.691 467.281 -414.691 467.281 -415.025 464.272 C-415.918 455.802 -416.275 447.522 -416 439 C-400.651 428 -400.651 428 -393 428 C-393 427.34 -393 426.68 -393 426 C-392.113 425.587 -392.113 425.587 -387.625 423.5 C-386.627 423.036 -385.63 422.572 -384.602 422.094 C-382 421 -382 421 -380 421 C-380.165 420.505 -380.165 420.505 -381 418 C-386.61 417.505 -386.61 417.505 -415 415 C-419.67 410.33 -417.122 397.082 -417.136 390.686 C-417.101 374.91 -416.235 359.482 -413 344 C-407.646 340.788 -404.376 340.233 -398.25 339.438 C-397.323 339.315 -397.323 339.315 -392.629 338.695 C-385.089 337.764 -377.55 336.841 -370 336 C-370.165 335.505 -370.165 335.505 -371 333 C-371.955 332.625 -372.91 332.25 -373.895 331.863 C-379.965 329.461 -386.01 327.051 -391.938 324.312 C-396.247 322.344 -400.543 320.598 -405 319 C-408.971 312.381 -406.888 309.366 -405.07 302.09 C-403.908 297.647 -402.47 293.35 -401 289 C-399.736 284.441 -398.5 279.876 -397.281 275.305 C-396.106 271.357 -394.651 267.766 -393 264 C-391.711 260.189 -390.495 256.359 -389.281 252.523 C-388 249 -388 249 -385 244 C-384.67 243.34 -384.34 242.68 -384 242 C-370.512 241.7 -357.399 242.597 -344 244 C-344 243.01 -344 242.02 -344 241 C-344.66 241 -345.32 241 -346 241 C-346.99 240.01 -347.98 239.02 -349 238 C-353.355 234.889 -357.735 231.843 -362.188 228.875 C-365.513 226.658 -368.756 224.335 -372 222 C-373 216 -373 216 -370.25 212 C-367 207 -367 207 -364.938 202.875 C-362.958 198.915 -360.587 195.583 -358 192 C-357.533 191.062 -357.067 190.123 -356.586 189.156 C-352.417 180.859 -346.614 173.36 -341 166 C-339.326 163.672 -337.657 161.34 -336 159 C-330.129 159.731 -324.447 160.964 -318.688 162.312 C-317.803 162.517 -317.803 162.517 -313.324 163.551 C-307.961 165.011 -303.11 166.839 -298 169 C-300.236 163.411 -302.708 161.152 -307 157 C-311.401 152.058 -315.702 147.032 -320 142 C-318.02 134.081 -311.072 129.06 -305 124 C-303.329 122.338 -301.663 120.67 -300 119 C-288.06 107.614 -275.739 97.159 -262 88 C-255.778 89.244 -253.626 91.719 -249 96 C-247.618 97.196 -246.236 98.392 -244.812 99.625 C-241.757 102.33 -238.839 105.073 -236 108 C-234.35 108.33 -232.7 108.66 -231 109 C-233.472 100.177 -235.986 91.405 -239.188 82.812 C-240 80 -240 80 -240 74 C-231.722 69.552 -223.449 65.116 -215 61 C-214.112 60.553 -213.224 60.105 -212.309 59.645 C-203.173 55.202 -193.667 51.989 -184.062 48.734 C-180.678 47.575 -177.322 46.329 -174 45 C-169.319 43.894 -164.63 42.863 -159.928 41.855 C-155.634 40.913 -151.95 39.975 -148 38 C-146.68 38.33 -145.36 38.66 -144 39 C-144.96 49.71 -146.262 60.328 -148 70.938 C-148.166 71.973 -148.332 73.009 -148.503 74.076 C-149.241 78.458 -150 82 -152 86 C-152 87.32 -152 88.64 -152 90 C-151.34 90 -150.68 90 -150 90 C-149.758 89.589 -149.758 89.589 -148.531 87.508 C-144.142 80.198 -139.438 73.551 -134 67 C-132.66 65.297 -131.327 63.589 -130 61.875 C-129.505 61.236 -129.505 61.236 -127 58 C-126.34 58 -125.68 58 -125 58 C-124.34 56.68 -123.68 55.36 -123 54 C-108.25 37.831 -89.424 26.602 -70 17 C-68.759 16.344 -67.517 15.688 -66.238 15.012 C-61.652 12.835 -57.109 11.339 -52.25 9.875 C-47.597 8.468 -43.348 7.174 -39 5 C-7.79 -1.948 -7.79 -1.948 0 0 Z " fill="#fff" transform="translate(789,195)"></path>
    <path d="M0 0 C126.06 0 252.12 0 382 0 C383 4 383.034 7.206 383.062 11.312 C383.702 22.471 388.412 30.783 395.562 39.188 C400.979 43.619 406.601 46.288 413 49 C435.841 60.142 435.841 60.142 444 69 C445.985 70.685 447.981 72.357 450 74 C450 75.32 450 76.64 450 78 C280.38 78 110.76 78 -64 78 C-64.33 76.68 -64.66 75.36 -65 74 C-57.701 66.245 -49.488 61.524 -40 57 C-38.206 56.108 -36.415 55.213 -34.625 54.312 C-32.109 53.055 -29.59 51.803 -27.055 50.586 C-16.091 44.894 -8.556 37.77 -4.188 26.062 C-1.583 17.781 -1.116 9.638 -1 1 C-0.67 0.67 -0.34 0.34 0 0 Z " fill="#fff" transform="translate(481,1053)"></path>
    <path d="M0 0 C0.985 -0.004 1.969 -0.009 2.984 -0.013 C6.274 -0.024 9.563 -0.014 12.853 -0.003 C15.239 -0.007 17.626 -0.012 20.012 -0.018 C26.562 -0.03 33.112 -0.024 39.662 -0.015 C46.729 -0.008 53.796 -0.018 60.863 -0.027 C74.704 -0.04 88.545 -0.037 102.385 -0.028 C113.633 -0.022 124.88 -0.021 136.127 -0.024 C137.728 -0.024 139.328 -0.025 140.976 -0.025 C144.227 -0.026 147.478 -0.027 150.728 -0.028 C181.216 -0.037 211.703 -0.027 242.19 -0.011 C268.357 0.003 294.523 0 320.69 -0.014 C351.069 -0.03 381.448 -0.036 411.827 -0.027 C415.065 -0.026 418.304 -0.025 421.542 -0.024 C423.136 -0.023 424.729 -0.023 426.371 -0.023 C437.607 -0.02 448.843 -0.024 460.079 -0.031 C473.768 -0.04 487.458 -0.038 501.148 -0.022 C508.134 -0.014 515.12 -0.011 522.107 -0.02 C528.5 -0.029 534.893 -0.025 541.286 -0.009 C543.601 -0.005 545.916 -0.007 548.231 -0.014 C551.375 -0.023 554.518 -0.014 557.661 0 C558.535 0 558.535 0 562.955 0.001 C574.442 0.899 583.653 6.411 591.768 14.378 C600.175 25.884 602.916 35.567 602.893 49.815 C602.895 51.402 602.898 52.989 602.901 54.624 C602.696 61.943 602.361 68.183 598.955 74.753 C598.705 75.251 598.705 75.251 597.436 77.776 C595.768 80.378 595.768 80.378 591.768 83.378 C488.478 83.543 488.478 83.543 -34.232 84.378 C-39.022 79.588 -40.749 76.497 -43.232 70.378 C-43.562 69.718 -43.892 69.058 -44.232 68.378 C-45.477 59.385 -45.401 50.433 -45.232 41.378 C-45.212 39.831 -45.191 38.284 -45.17 36.69 C-42.236 23.194 -34.153 12.894 -23.15 4.92 C-15.695 0.978 -8.326 0.002 0 0 Z " fill="#fff" transform="translate(393.2321786880493,1154.6224765777588)"></path>
  </g>
</svg>
